<?xml version="1.0" encoding="utf-8"?>
<!-- Svg Vector Icons : http://www.onlinewebfonts.com/icon -->
<!DOCTYPE svg PUBLIC "-//W3C//DTD SVG 1.1//EN" "http://www.w3.org/Graphics/SVG/1.1/DTD/svg11.dtd">
<svg version="1.1" xmlns="http://www.w3.org/2000/svg" xmlns:xlink="http://www.w3.org/1999/xlink" x="0px" y="0px" viewBox="0 0 256 256" enable-background="new 0 0 256 256" xml:space="preserve">
<metadata> Svg Vector Icons : http://www.onlinewebfonts.com/icon </metadata>
<g><g><g><path fill="#000000" d="M98.4,10.9l-1.2,0.9v11.9c0,10.7,0.1,11.9,0.9,12.7c0.8,0.8,2.7,0.9,29.9,0.9s29,0,29.9-0.9c0.8-0.8,0.9-2,0.9-12.7V11.9l-1.2-0.9C156.5,10,155.3,10,128,10C100.7,10,99.5,10,98.4,10.9z"/><path fill="#000000" d="M47.5,24.3c-0.6,0.2-1.5,1-2.1,1.8l-1,1.3v107.7v107.7l1.4,1.6l1.4,1.6H128h80.8l1.4-1.6l1.4-1.6V135V27.2l-1.4-1.6l-1.4-1.6l-21.7-0.1l-21.6-0.1l-0.3,5.8c-0.3,6.7-0.9,8.9-3.1,11.3c-1.1,1.3-2.1,1.9-3.9,2.2c-3.6,0.7-57.1,1.1-59.7,0.4c-3.1-0.8-5.2-2.5-6.5-5.2c-1-2.1-1.2-3.3-1.4-8.5l-0.2-6.1l-21,0C58,23.8,48,24,47.5,24.3z M201.3,151v84.4H128H54.7v-84.2V67.1l73-0.1c40.1,0,73.1-0.1,73.3-0.2C201.2,66.6,201.3,104.6,201.3,151z"/><path fill="#000000" d="M72,99c-2,1.3-2.9,3.9-1.9,6.2c1.4,3.3,0.4,3.2,26.8,3.2c15.4,0,24.1-0.2,24.8-0.5c0.5-0.3,1.3-1.2,1.7-2c1.1-2.2,0.9-4.2-0.7-6l-1.4-1.6l-23.8-0.1C74.5,98.1,73.6,98.1,72,99z"/><path fill="#000000" d="M72,131.1c-2,1.2-2.9,3.9-1.9,6.2c1.4,3.4-0.6,3.2,36.6,3.2c23.1,0,33.9-0.1,34.7-0.5c1.5-0.7,2.8-2.9,2.8-4.9c0-1.1-0.5-2.1-1.7-3.2l-1.7-1.7h-33.6C74.8,130.1,73.6,130.1,72,131.1z"/><path fill="#000000" d="M71.9,162.9c-3,2.1-2.9,6.8,0.1,8.6c1.5,0.9,2.9,1,50.5,1h48.9l1.7-1.7c1.8-1.8,2.2-3.6,1.1-6c-1.3-2.8,0.9-2.7-52.2-2.7C77.6,162.1,73,162.1,71.9,162.9z"/><path fill="#000000" d="M71.9,194.9c-3,2.1-2.9,6.7,0.1,8.6c1.5,0.9,2.5,0.9,25.3,0.8l23.8-0.1l1.4-1.6c1.6-1.8,1.8-3.8,0.7-6c-0.4-0.8-1.2-1.7-1.7-2c-0.6-0.3-9.4-0.5-24.8-0.5C75.7,194.1,73,194.2,71.9,194.9z"/></g></g></g>
</svg>